<?xml version="1.0" encoding="utf-8"?>
<!-- Generator: Adobe Illustrator 22.1.0, SVG Export Plug-In . SVG Version: 6.00 Build 0)  -->
<svg version="1.1" id="Layer_1" xmlns="http://www.w3.org/2000/svg" xmlns:xlink="http://www.w3.org/1999/xlink" x="0px" y="0px"
	 viewBox="0 0 270 100" style="enable-background:new 0 0 270 100;" xml:space="preserve">
<style type="text/css">
	.st0{fill:#FFFFFF;}
</style>
<rect width="270" height="100"/>
<g>
	<path class="st0" d="M40.76,53.59v-0.32c0-6.32,4-10.68,9.6-10.68c5.04,0,9.16,3.28,9.16,10.2v0.76H42.96
		c0.08,5.6,2.76,8.8,7.72,8.8c3.48,0,5.84-1.44,6.56-4.36h2.12c-0.88,4-4.2,6.16-8.68,6.16C44.64,64.15,40.76,59.87,40.76,53.59z
		 M57.32,51.83c-0.2-5.08-2.88-7.44-6.96-7.44c-4.04,0-6.92,2.88-7.32,7.44H57.32z"/>
	<path class="st0" d="M72.88,35.23h16.28v1.84H75.12v11.36h11.04v1.84H75.12v13.56h-2.24V35.23z"/>
	<path class="st0" d="M100.32,49.71v-0.32c0-8.12,5.88-14.48,13.92-14.48c8.08,0,13.92,6.36,13.92,14.4v0.32
		c0,8.08-5.84,14.52-13.84,14.52C106.16,64.15,100.32,57.71,100.32,49.71z M125.84,49.59v-0.32c0-6.96-4.6-12.52-11.6-12.52
		c-7,0-11.64,5.4-11.64,12.6v0.32c0,7.28,5.08,12.6,11.72,12.6C121.16,62.27,125.84,56.91,125.84,49.59z"/>
	<path class="st0" d="M141.92,35.23h7.84c5.56,0,9.72,2.16,9.72,7.68v0.16c0,4.76-3.12,6.96-7.4,7.56l9.08,13.2h-2.48l-8.96-13.04
		h-5.56v13.04h-2.24V35.23z M149.88,48.99c4.6,0,7.36-1.76,7.36-5.92v-0.16c0-4.4-2.92-5.84-7.36-5.84h-5.72v11.92H149.88z"/>
	<path class="st0" d="M172.2,49.71v-0.32c0-8.36,5.8-14.52,13.64-14.52c5.48,0,10.4,2.56,11.48,8.52h-2.24
		c-1.04-4.72-4.64-6.72-9.2-6.72c-6.88,0-11.4,5.24-11.4,12.68v0.32c0,7.6,4.08,12.64,11.44,12.64c6.68,0,10.04-4.12,10.12-10.4
		v-0.16h-8.8v-1.88h10.96v1.64c0,8.24-4.92,12.64-12.28,12.64C177.32,64.15,172.2,58.11,172.2,49.71z"/>
	<path class="st0" d="M212,35.23h16.44v1.84h-14.2v11.16h11.52v1.84h-11.52v11.92h14.92v1.84H212V35.23z"/>
</g>
<g>
</g>
<g>
</g>
<g>
</g>
<g>
</g>
<g>
</g>
</svg>
