<?xml version="1.0" encoding="utf-8"?>
<!-- Generator: Adobe Illustrator 22.1.0, SVG Export Plug-In . SVG Version: 6.00 Build 0)  -->
<svg version="1.1" id="Layer_1" xmlns="http://www.w3.org/2000/svg" xmlns:xlink="http://www.w3.org/1999/xlink" x="0px" y="0px"
	 viewBox="0 0 255.6 47.9" style="enable-background:new 0 0 255.6 47.9;" xml:space="preserve">
<g>
	<path d="M2.8,27.2v-0.3c0-6.3,4-10.7,9.6-10.7c5,0,9.2,3.3,9.2,10.2v0.8H4.9C5,32.8,7.7,36,12.7,36c3.5,0,5.8-1.4,6.6-4.4h2.1
		c-0.9,4-4.2,6.2-8.7,6.2C6.6,37.8,2.8,33.5,2.8,27.2z M19.3,25.4c-0.2-5.1-2.9-7.4-7-7.4c-4,0-6.9,2.9-7.3,7.4H19.3z"/>
	<path d="M34.9,8.8h16.3v1.8h-14V22h11v1.8h-11v13.6h-2.2V8.8z"/>
	<path d="M62.3,23.3V23c0-8.1,5.9-14.5,13.9-14.5c8.1,0,13.9,6.4,13.9,14.4v0.3c0,8.1-5.8,14.5-13.8,14.5
		C68.2,37.8,62.3,31.3,62.3,23.3z M87.8,23.2v-0.3c0-7-4.6-12.5-11.6-12.5S64.6,15.8,64.6,23v0.3c0,7.3,5.1,12.6,11.7,12.6
		C83.2,35.9,87.8,30.5,87.8,23.2z"/>
	<path d="M103.9,8.8h7.8c5.6,0,9.7,2.2,9.7,7.7v0.2c0,4.8-3.1,7-7.4,7.6l9.1,13.2h-2.5l-9-13h-5.6v13h-2.2V8.8z M111.9,22.6
		c4.6,0,7.4-1.8,7.4-5.9v-0.2c0-4.4-2.9-5.8-7.4-5.8h-5.7v11.9H111.9z"/>
	<path d="M134.2,23.3V23c0-8.4,5.8-14.5,13.6-14.5c5.5,0,10.4,2.6,11.5,8.5h-2.2c-1-4.7-4.6-6.7-9.2-6.7c-6.9,0-11.4,5.2-11.4,12.7
		v0.3c0,7.6,4.1,12.6,11.4,12.6c6.7,0,10-4.1,10.1-10.4v-0.2h-8.8v-1.9h11v1.6c0,8.2-4.9,12.6-12.3,12.6
		C139.3,37.8,134.2,31.7,134.2,23.3z"/>
	<path d="M174,8.8h16.4v1.8h-14.2v11.2h11.5v1.8h-11.5v11.9h14.9v1.8H174V8.8z"/>
	<path d="M206.6,36.8l6.3-6.6c1.7-1.8,2.7-3.3,2.7-4.8c0-1.4-0.8-2.3-2.3-2.3c-1.5,0-2.5,0.9-2.7,3.1h-3.5c0.2-4,2.6-6.1,6.4-6.1
		c3.8,0,5.9,2.1,5.9,5.2c0,2.3-1.3,4.1-3.3,6.1l-3.2,3.2h6.7v3h-12.9V36.8z"/>
	<path d="M226.6,35.5c0-1.2,0.9-2.1,2.1-2.1c1.2,0,2.2,0.9,2.2,2.1c0,1.2-0.9,2.1-2.2,2.1C227.5,37.6,226.6,36.7,226.6,35.5z"/>
	<path d="M236.9,29.3v-0.8c0-5.3,3.1-8.4,7.5-8.4s7.5,3,7.5,8.4v0.8c0,5.3-2.9,8.5-7.5,8.5C239.8,37.7,236.9,34.5,236.9,29.3z
		 M248,29.2v-0.8c0-3.5-1.2-5.4-3.6-5.4c-2.4,0-3.6,1.9-3.6,5.4v0.8c0,3.6,1.3,5.4,3.7,5.4C246.9,34.6,248,32.8,248,29.2z"/>
</g>
</svg>
